<?xml version="1.0" standalone="no"?>
<!DOCTYPE svg PUBLIC "-//W3C//DTD SVG 20010904//EN"
 "http://www.w3.org/TR/2001/REC-SVG-20010904/DTD/svg10.dtd">
<svg version="1.0" xmlns="http://www.w3.org/2000/svg"
 width="481.000000pt" height="280.000000pt" viewBox="0 0 481.000000 280.000000"
 preserveAspectRatio="xMidYMid meet">

<g transform="translate(0.000000,280.000000) scale(0.100000,-0.100000)"
fill="#000000" stroke="none">
<path d="M787 2720 c-216 -38 -434 -166 -556 -326 -63 -83 -122 -203 -152
-304 -30 -107 -38 -338 -15 -444 23 -101 69 -225 117 -314 l39 -74 0 -460 0
-461 41 -54 c194 -251 537 -281 767 -68 l62 57 0 -101 0 -101 400 0 400 0 0
65 c0 36 3 65 6 65 3 0 20 -11 37 -24 201 -150 480 -137 668 32 l49 44 0 -91
0 -91 928 2 927 3 0 505 0 505 -197 3 -196 2 27 73 c15 39 154 401 309 804
155 402 282 734 282 737 0 3 -820 8 -1822 10 -1003 3 -1879 7 -1948 10 -69 2
-147 0 -173 -4z m300 -170 c167 -21 302 -87 418 -204 83 -84 126 -154 169
-273 29 -84 31 -95 31 -238 0 -172 -12 -231 -75 -363 -39 -82 -124 -204 -174
-251 -14 -14 -26 -29 -26 -35 0 -5 23 -43 51 -83 l50 -73 -165 0 -166 0 -165
248 -165 247 183 3 c173 2 183 2 199 -18 9 -11 20 -20 25 -20 11 0 66 106 89
170 8 25 18 88 21 141 13 228 -77 408 -245 491 -63 31 -72 33 -177 33 -98 0
-116 -3 -167 -27 -32 -15 -80 -48 -108 -74 -131 -122 -174 -371 -100 -580 36
-104 126 -196 227 -233 45 -17 54 -27 151 -169 l103 -152 -115 0 c-133 0 -196
11 -283 50 -151 68 -253 170 -336 337 -127 252 -111 547 44 775 86 127 189
208 330 259 124 45 234 57 376 39z m3335 -67 c-19 -36 -72 -159 -229 -533 -99
-234 -300 -706 -332 -780 l-29 -65 -129 -3 -129 -3 -63 138 c-155 335 -250
544 -346 763 -57 129 -133 300 -169 379 -36 79 -66 145 -66 147 0 3 81 3 181
2 l181 -3 24 -60 c14 -33 69 -186 124 -340 131 -373 228 -637 238 -647 8 -8
31 50 226 572 69 184 138 367 154 405 l29 70 169 5 c93 3 173 2 177 -1 5 -4 0
-24 -11 -46z m-1624 13 l37 -34 0 -636 c0 -626 0 -635 -21 -663 -44 -60 -61
-63 -372 -63 -306 0 -324 3 -372 55 l-25 27 -5 566 -5 567 -168 3 -167 2 -31
43 c-30 40 -58 95 -73 145 l-7 22 585 0 586 0 38 -34z m-1988 -1621 c25 -8 57
-25 72 -38 l27 -22 -30 -35 c-25 -30 -32 -33 -47 -22 -9 7 -37 22 -61 33 -85
41 -192 8 -199 -60 -6 -54 9 -64 158 -108 111 -32 148 -56 172 -110 36 -82 -1
-166 -96 -216 -63 -33 -183 -31 -256 5 -30 15 -66 35 -79 46 l-25 20 26 30 25
30 31 -24 c88 -69 246 -72 282 -5 18 35 12 78 -14 99 -13 10 -60 29 -103 41
-112 32 -150 50 -182 87 -40 45 -48 101 -23 157 45 101 181 140 322 92z m1587
-16 c240 -116 220 -474 -31 -568 -165 -62 -357 18 -414 172 -55 146 -9 302
110 379 105 66 222 73 335 17z m-719 -19 l3 -40 -100 0 -101 0 0 -147 c0 -82
-3 -199 -7 -260 l-6 -113 -39 0 -38 0 0 260 0 260 -105 0 -105 0 0 38 c0 21 2
41 4 43 2 2 114 3 248 2 l243 -3 3 -40z m1545 41 c46 -6 81 -18 108 -36 109
-71 104 -256 -7 -321 -26 -16 -41 -30 -37 -37 3 -7 35 -53 70 -104 35 -51 63
-95 63 -98 0 -3 -22 -5 -48 -5 l-48 0 -54 78 c-93 134 -89 132 -197 132 l-93
0 0 -105 0 -105 -39 0 -38 0 -8 294 c-4 162 -4 300 0 305 8 13 231 14 328 2z
m965 -39 l3 -42 -181 0 -181 0 3 -87 3 -88 158 -3 158 -3 -3 -37 -3 -37 -158
-3 -158 -3 3 -92 3 -92 173 -3 172 -2 0 -35 0 -35 -220 0 -220 0 -1 158 c0 86
-3 217 -5 291 -3 73 -3 139 -1 146 4 9 57 12 229 11 l223 -2 3 -42z"/>
<path d="M2314 2409 c-13 -21 22 -29 121 -27 86 3 100 5 103 21 3 15 -7 17
-107 17 -70 0 -112 -4 -117 -11z"/>
<path d="M2391 1254 c-26 -33 -26 -49 -1 -74 26 -26 60 -25 88 0 27 26 28 54
2 80 -28 28 -64 25 -89 -6z"/>
<path d="M2165 795 c-90 -31 -156 -148 -140 -247 21 -127 116 -204 242 -196
83 5 137 42 176 117 49 97 33 197 -42 272 -66 67 -147 85 -236 54z"/>
<path d="M2980 685 l0 -117 135 4 135 3 32 32 c26 26 31 39 31 78 0 39 -5 52
-31 78 l-32 32 -135 3 -135 4 0 -117z"/>
</g>
</svg>
